<svg width="24" height="24" viewBox="0 0 24 24" fill="none" xmlns="http://www.w3.org/2000/svg">
<path d="M19.875 21C17.9417 21 15.9708 20.5333 13.9625 19.6C11.9542 18.6667 10.0917 17.3417 8.375 15.625C6.65833 13.9083 5.33333 12.0458 4.4 10.0375C3.46667 8.02917 3 6.05833 3 4.125C3 3.8035 3.10717 3.53567 3.3215 3.3215C3.53567 3.10717 3.8035 3 4.125 3H7.625C7.85833 3 8.05833 3.08333 8.225 3.25C8.39167 3.41667 8.50833 3.625 8.575 3.875L9.24825 7.016C9.28275 7.25533 9.27917 7.47083 9.2375 7.6625C9.19583 7.85417 9.10642 8.01858 8.96925 8.15575L6.475 10.675C6.90833 11.4083 7.36667 12.0917 7.85 12.725C8.33333 13.3583 8.86667 13.9583 9.45 14.525C10.0667 15.1583 10.7167 15.7375 11.4 16.2625C12.0833 16.7875 12.8 17.25 13.55 17.65L15.925 15.2C16.0917 15.0167 16.2846 14.8917 16.5038 14.825C16.7229 14.7583 16.9383 14.7417 17.15 14.775L20.125 15.425C20.375 15.4917 20.5833 15.6253 20.75 15.826C20.9167 16.0268 21 16.2515 21 16.5V19.875C21 20.1965 20.8928 20.4643 20.6785 20.6785C20.4643 20.8928 20.1965 21 19.875 21ZM5.725 9.3L7.75 7.25L7.175 4.5H4.5C4.53333 5.2 4.64583 5.9375 4.8375 6.7125C5.02917 7.4875 5.325 8.35 5.725 9.3ZM14.95 18.375C15.6333 18.6917 16.375 18.95 17.175 19.15C17.975 19.35 18.75 19.4667 19.5 19.5V16.825L16.925 16.3L14.95 18.375Z" fill="#4B2E1C"/>
</svg>
