<svg width="26" height="26" viewBox="0 0 26 26" fill="none" xmlns="http://www.w3.org/2000/svg">
<path d="M24.0707 16.4526L24.0519 16.4472L24.0328 16.4433L19.4328 15.51L19.4185 15.5071L19.404 15.505C19.0143 15.4493 18.6228 15.4855 18.2351 15.6058C17.8503 15.7252 17.5139 15.9123 17.2464 16.1798L14.3873 19.039C13.6833 18.6142 13.0122 18.1531 12.374 17.6556C11.635 17.0796 10.9281 16.4544 10.2536 15.7798L10.2536 15.7797L10.2481 15.7744C9.5294 15.0775 8.87161 14.3543 8.27432 13.605C7.7614 12.9615 7.30998 12.2992 6.91951 11.6182L9.88689 8.62022C9.88722 8.61989 9.88755 8.61955 9.88788 8.61922C10.1272 8.37961 10.2931 8.09214 10.3824 7.76489C10.4718 7.43711 10.4789 7.06684 10.4295 6.67131L10.4276 6.65661L10.4249 6.64204L9.55956 1.98236C9.4936 1.56702 9.28228 1.21647 8.96014 0.938255C8.62867 0.651981 8.23602 0.5 7.8 0.5H2.4C1.87632 0.5 1.41301 0.679882 1.04645 1.04645C0.679882 1.41301 0.5 1.87632 0.5 2.4C0.5 5.25282 1.12238 8.06649 2.36015 10.8373C3.59759 13.6073 5.35027 16.124 7.61311 18.3869C9.87596 20.6497 12.3927 22.4024 15.1627 23.6399C17.9335 24.8776 20.7472 25.5 23.6 25.5C24.1237 25.5 24.587 25.3201 24.9536 24.9536C25.3201 24.587 25.5 24.1237 25.5 23.6V18.2C25.5 17.7838 25.3519 17.409 25.0796 17.0913C24.8124 16.7795 24.4708 16.5669 24.0707 16.4526Z" stroke="#C2A79A"/>
</svg>
