<svg width="26" height="27" viewBox="0 0 26 27" fill="none" xmlns="http://www.w3.org/2000/svg">
<path d="M12.7186 25.4133L13 25.6049L13.2814 25.4133C17.3248 22.6608 20.372 20.0864 22.4005 17.6879C24.4251 15.2941 25.5 13.0074 25.5 10.84C25.5 7.68136 24.2185 5.14199 21.6781 3.26766C19.1744 1.42035 16.2751 0.5 13 0.5C9.72487 0.5 6.82562 1.42035 4.32189 3.26766C1.78155 5.14199 0.5 7.68136 0.5 10.84C0.5 13.0074 1.57493 15.2941 3.59948 17.6879C5.62805 20.0864 8.67524 22.6608 12.7186 25.4133ZM14.8064 11.9046C14.3163 12.2967 13.7231 12.5 13 12.5C12.2769 12.5 11.6837 12.2967 11.1936 11.9046C10.706 11.5145 10.5 11.0856 10.5 10.6C10.5 10.1144 10.706 9.68554 11.1936 9.29543C11.6837 8.90332 12.2769 8.7 13 8.7C13.7231 8.7 14.3163 8.90332 14.8064 9.29543C15.294 9.68554 15.5 10.1144 15.5 10.6C15.5 11.0856 15.294 11.5145 14.8064 11.9046Z" fill="#4B2E1D" stroke="#DAA520"/>
</svg>
