<svg width="128" height="122" viewBox="0 0 128 122" fill="none" xmlns="http://www.w3.org/2000/svg">
<path d="M68.4489 89.7362L68.0334 89.8075V90.229V96.0832H59.7001V89.9748V89.5741L59.3089 89.4868C55.2036 88.571 51.8904 86.8921 49.3451 84.466C46.891 82.127 45.0453 79.0716 43.8192 75.2806L51.6837 72.3277C52.7776 75.6257 54.4408 78.1593 56.696 79.8874C59.0524 81.693 61.76 82.5957 64.8001 82.5957C67.8096 82.5957 70.417 81.9213 72.5995 80.5492C74.8555 79.1309 75.9668 76.903 75.9668 73.9623C75.9668 71.3271 74.7854 69.1894 72.4869 67.5799C70.2478 66.0119 66.3013 64.2566 60.6977 62.3068L60.694 62.3055C55.4837 60.5379 51.7215 58.4513 49.3545 56.0722C47.0173 53.723 45.8334 50.6376 45.8334 46.7665C45.8334 43.4254 47.026 40.4068 49.4402 37.6948C51.8438 34.9947 55.2068 33.1748 59.5694 32.26L59.9668 32.1767V31.7707V25.9165H68.3001V31.7707V32.2325L68.7605 32.2691C71.8496 32.5145 74.6636 33.6984 77.2118 35.8389C79.6358 37.8752 81.3275 40.2338 82.3031 42.9161L74.6854 45.8657C73.9344 44.0413 72.7882 42.4951 71.2506 41.2331C69.5328 39.8232 67.1839 39.1498 64.2668 39.1498C61.0975 39.1498 58.5937 39.7957 56.8277 41.1605C55.0524 42.5324 54.1668 44.4196 54.1668 46.7665C54.1668 49.1605 55.2945 51.0496 57.4695 52.4016C59.5711 53.708 63.3114 55.2054 68.643 56.8996C75.0139 59.093 79.1548 61.6342 81.1942 64.4689C83.2681 67.3516 84.3001 70.5117 84.3001 73.9623C84.3001 78.8461 82.743 82.4556 79.6891 84.8812C76.5615 87.3654 72.8193 88.9864 68.4489 89.7362ZM43.0099 108.292C49.5622 110.987 56.5605 112.333 64.0001 112.333C71.4397 112.333 78.438 110.987 84.9903 108.292C91.5332 105.602 97.2309 101.947 102.078 97.3264C106.926 92.706 110.763 87.2729 113.589 81.0311C116.419 74.7792 117.833 68.1003 117.833 60.9998C117.833 53.8994 116.419 47.2205 113.589 40.9686C110.763 34.7268 106.926 29.2937 102.078 24.6733C97.2309 20.0531 91.5332 16.3982 84.9903 13.7072C78.438 11.0124 71.4397 9.6665 64.0001 9.6665C56.5605 9.6665 49.5622 11.0124 43.0099 13.7072C36.467 16.3982 30.7693 20.0531 25.9218 24.6733C21.0742 29.2937 17.2371 34.7268 14.4113 40.9686C11.5809 47.2205 10.1667 53.8994 10.1667 60.9998C10.1667 68.1003 11.5809 74.7792 14.4113 81.0311C17.2371 87.2729 21.0742 92.706 25.9218 97.3263C30.7693 101.947 36.467 105.602 43.0099 108.292Z" fill="#FFF2E9" stroke="#4B2E1C"/>
</svg>
