<svg width="128" height="112" viewBox="0 0 128 112" fill="none" xmlns="http://www.w3.org/2000/svg">
<path d="M117.559 10.0617L117.495 9.70411L117.135 9.65466C106.305 8.16669 95.7837 9.10644 85.5767 12.4752C75.4371 15.8217 65.7511 21.5229 56.5181 29.566L43.5537 27.2743L43.5529 27.2742C41.7036 26.9505 39.8743 27.0314 38.07 27.5172C36.2694 28.002 34.7108 28.8137 33.4041 29.9571L33.403 29.958L11.1363 49.558L10.5094 50.1099L11.2919 50.4018L37.4729 60.1698L60.1281 79.9931L71.2839 102.886L71.5704 103.474L72.0626 103.043L94.4626 83.443C95.7673 82.3013 96.7067 80.9481 97.2703 79.3864C97.8367 77.817 97.9307 76.2027 97.5541 74.5553L97.5539 74.5542L94.9544 63.2954C104.122 55.2287 110.61 46.7386 114.394 37.8203C118.209 28.8264 119.265 19.5696 117.559 10.0617ZM10.4393 103.057L10.3381 103.708L10.9924 103.63C20.1576 102.54 27.3627 101.292 32.5967 99.8828C37.8192 98.4767 41.6199 96.7803 43.9293 94.7596C47.1411 91.9493 48.7872 88.4922 48.8333 84.414C48.8795 80.3316 47.2771 76.8698 44.0626 74.0571C40.851 71.2469 36.9291 69.8685 32.329 69.9084C27.7316 69.9482 23.8132 71.3657 20.6041 74.1737C18.2883 76.2001 16.3407 79.5405 14.7283 84.1258C13.1136 88.7177 11.6857 95.0326 10.4393 103.057ZM43.9826 44.0581C42.7184 45.9754 41.4943 47.9619 40.3102 50.0176L31.0951 46.6062L41.4834 37.5165L47.8896 38.6175C46.4813 40.4302 45.1789 42.2437 43.9826 44.0581ZM76.009 63.5049C71.869 65.9953 67.9923 67.8532 64.3781 69.0848L49.6734 56.331C51.0758 53.2089 53.179 49.8572 55.9932 46.2756C58.9065 42.5677 62.2183 39.0901 65.9293 35.843C72.1093 30.4354 78.9944 26.2068 86.5865 23.1556C94.0058 20.1738 100.807 18.8443 106.999 19.1419C107.323 24.504 105.814 30.3887 102.425 36.8082C98.9447 43.399 94.1182 49.3989 87.9374 54.8071C84.2264 58.0542 80.2504 60.9534 76.009 63.5049ZM69.2334 42.2917C69.2334 45.0483 70.3231 47.3804 72.4708 49.2596C74.6168 51.1374 77.2713 52.0667 80.4 52.0667C83.5287 52.0667 86.1833 51.1374 88.3293 49.2596C90.477 47.3804 91.5667 45.0483 91.5667 42.2917C91.5667 39.5351 90.477 37.2029 88.3293 35.3237C86.1833 33.4459 83.5287 32.5167 80.4 32.5167C77.2713 32.5167 74.6168 33.4459 72.4708 35.3237C70.3231 37.2029 69.2334 39.5351 69.2334 42.2917ZM84.7305 70.7852L85.9804 76.3528L75.5004 85.5228L71.6069 77.367C73.9332 76.3424 76.1818 75.3004 78.3526 74.241C80.4794 73.2032 82.6054 72.0512 84.7305 70.7852ZM26.3258 85.5397C27.2071 83.4962 28.0602 82.1618 28.8626 81.4596C29.8354 80.6085 31.0101 80.1609 32.4129 80.1248C33.8076 80.089 34.9719 80.4981 35.9374 81.343C36.8962 82.1819 37.3121 83.162 37.2345 84.3165C37.1551 85.4966 36.6454 86.5043 35.6708 87.3571C34.8654 88.0618 33.3297 88.7954 30.9837 89.5313C28.8785 90.1916 26.7562 90.6789 24.6165 90.9933C24.9779 89.1627 25.5473 87.3449 26.3258 85.5397Z" fill="#FFF2E9" stroke="#4B2E1C"/>
</svg>
