<svg width="45" height="45" viewBox="0 0 45 45" fill="none" xmlns="http://www.w3.org/2000/svg">
<path d="M11.25 41.25C10.2188 41.25 9.33594 40.8828 8.60156 40.1484C7.86719 39.4141 7.5 38.5312 7.5 37.5V15C7.5 13.9688 7.86719 13.0859 8.60156 12.3516C9.33594 11.6172 10.2188 11.25 11.25 11.25H15C15 9.1875 15.7344 7.42188 17.2031 5.95312C18.6719 4.48438 20.4375 3.75 22.5 3.75C24.5625 3.75 26.3281 4.48438 27.7969 5.95312C29.2656 7.42188 30 9.1875 30 11.25H33.75C34.7812 11.25 35.6641 11.6172 36.3984 12.3516C37.1328 13.0859 37.5 13.9688 37.5 15V37.5C37.5 38.5312 37.1328 39.4141 36.3984 40.1484C35.6641 40.8828 34.7812 41.25 33.75 41.25H11.25ZM11.25 37.5H33.75V15H30V18.75C30 19.2812 29.8203 19.7266 29.4609 20.0859C29.1016 20.4453 28.6562 20.625 28.125 20.625C27.5938 20.625 27.1484 20.4453 26.7891 20.0859C26.4297 19.7266 26.25 19.2812 26.25 18.75V15H18.75V18.75C18.75 19.2812 18.5703 19.7266 18.2109 20.0859C17.8516 20.4453 17.4062 20.625 16.875 20.625C16.3438 20.625 15.8984 20.4453 15.5391 20.0859C15.1797 19.7266 15 19.2812 15 18.75V15H11.25V37.5ZM18.75 11.25H26.25C26.25 10.2188 25.8828 9.33594 25.1484 8.60156C24.4141 7.86719 23.5312 7.5 22.5 7.5C21.4688 7.5 20.5859 7.86719 19.8516 8.60156C19.1172 9.33594 18.75 10.2188 18.75 11.25Z" fill="#4B2E1C"/>
</svg>
