<svg width="130" height="122" viewBox="0 0 130 122" fill="none" xmlns="http://www.w3.org/2000/svg">
<path d="M40.1249 30.5002V71.3225L30.8571 66.0335C30.8562 66.0329 30.8553 66.0324 30.8544 66.0319C28.5906 64.7048 26.1315 64.2179 23.496 64.5713C20.8615 64.9245 18.5948 66.032 16.7115 67.8878L16.711 67.8882L14.1381 70.4299L13.8103 70.7537L14.1064 71.1069L43.6243 106.305C43.6247 106.306 43.6251 106.306 43.6255 106.307C45.2084 108.229 47.1421 109.715 49.4213 110.763C51.7011 111.811 54.1425 112.333 56.7395 112.333H86.6666C92.7487 112.333 97.9726 110.296 102.311 106.225C106.65 102.153 108.833 97.2361 108.833 91.5002V71.1668C108.833 66.7891 107.194 63.0575 103.936 60.0002C100.679 56.944 96.7184 55.4168 92.0833 55.4168H62.427H61.927V55.9168V66.0835V66.5835H62.427H92.0833C93.5017 66.5835 94.6626 67.0294 95.6005 67.9095C96.5366 68.7881 96.9999 69.8628 96.9999 71.1668V91.5002C96.9999 94.1517 96.0009 96.415 93.9755 98.3158C91.9491 100.217 89.522 101.167 86.6666 101.167H56.7395C55.999 101.167 55.3043 101.013 54.6498 100.706C53.9907 100.397 53.4144 99.9727 52.9183 99.4316L40.6518 84.71L51.3427 90.9159L52.0937 91.3519V90.4835V30.5002C52.0937 28.9162 51.4904 27.5744 50.303 26.5065C49.1227 25.445 47.6926 24.9168 46.0416 24.9168C44.3906 24.9168 42.9786 25.4453 41.8401 26.5137C40.6998 27.5837 40.1249 28.9236 40.1249 30.5002ZM22.1914 43.4749L22.4414 43.8719L22.8534 43.6477L32.1972 38.5644L32.6583 38.3135L32.3853 37.8651C31.6839 36.7131 31.1608 35.5456 30.813 34.3623C30.4669 33.1849 30.2916 31.8986 30.2916 30.5002C30.2916 26.4057 31.8117 22.9359 34.8733 20.0627C37.9362 17.1883 41.649 15.7502 46.0416 15.7502C50.4342 15.7502 54.147 17.1883 57.2098 20.0627C60.2715 22.9359 61.7916 26.4057 61.7916 30.5002C61.7916 31.8986 61.6163 33.1849 61.2702 34.3623C60.9224 35.5456 60.3993 36.7131 59.6979 37.8651L59.4248 38.3135L59.886 38.5644L69.2297 43.6477L69.6418 43.8719L69.8918 43.4749C71.0906 41.571 72.0122 39.5163 72.6569 37.3124C73.3024 35.1057 73.6249 32.8344 73.6249 30.5002C73.6249 23.3255 70.9238 17.2008 65.5452 12.1533C60.1678 7.10677 53.6569 4.5835 46.0416 4.5835C38.4263 4.5835 31.9154 7.10677 26.538 12.1533C21.1594 17.2008 18.4583 23.3255 18.4583 30.5002C18.4583 32.8344 18.7808 35.1057 19.4263 37.3124C20.0709 39.5163 20.9926 41.571 22.1914 43.4749Z" fill="#FFF2E9" stroke="#4B2E1C"/>
</svg>
