<svg width="128" height="122" viewBox="0 0 128 122" fill="none" xmlns="http://www.w3.org/2000/svg">
<path d="M45.4422 114.639L45.6648 114.997L46.0549 114.838L63.9999 107.544L81.945 114.838L82.335 114.997L82.5576 114.639L92.5784 98.5534L111.57 94.5308L112.008 94.438L111.964 93.9923L110.12 75.4066L123.035 61.3381L123.345 61L123.035 60.6619L110.12 46.5934L111.964 28.0077L112.008 27.562L111.57 27.4692L92.5784 23.4466L82.5576 7.36063L82.335 7.00326L81.945 7.1618L63.9999 14.4561L46.0549 7.1618L45.6648 7.00326L45.4422 7.36063L35.4214 23.4466L16.4296 27.4692L15.9915 27.562L16.0357 28.0077L17.8803 46.5934L4.96493 60.6619L4.65451 61L4.96493 61.3381L17.8803 75.4066L16.0357 93.9923L15.9915 94.438L16.4296 94.5308L35.4214 98.5534L45.4422 114.639ZM58.3999 78.3551L40.1913 61L43.5449 57.8036L46.9373 54.5702L58.0592 64.9243L58.404 65.2452L58.7449 64.9203L81.0605 43.6507L87.8152 50.3187L58.3999 78.3551Z" fill="#FFF2E9" stroke="#4B2E1C"/>
</svg>
